<?xml version="1.0" encoding="iso-8859-1"?>
<!-- Uploaded to: SVG Repo, www.svgrepo.com, Generator: SVG Repo Mixer Tools -->
<svg height="800px" width="800px" version="1.1" id="Layer_1" xmlns="http://www.w3.org/2000/svg" xmlns:xlink="http://www.w3.org/1999/xlink" 
	 viewBox="0 0 512 512" xml:space="preserve">
<path style="fill:#808087;" d="M161.392,407.284c0.024,0.067,0.051,0.133,0.078,0.198c2.3,5.65,9.296,22.849,24.588,22.849
	c13.121,0,21.336-12.811,26.374-22.446c0.045-0.088,0.094-0.18,0.137-0.269c10.564-21.549,29.648-64.052,44.626-97.806
	c19.679,47.421,33.456,80.033,41.013,97.086c2.498,5.68,10.098,22.968,25.288,22.969h0.003c14.765,0,22.679-16.584,25.279-22.032
	c0.095-0.2,0.183-0.401,0.268-0.605c26.626-65.046,104.797-261.683,105.584-263.662c0.059-0.151,0.117-0.302,0.17-0.457
	c2.715-7.758,6.324-13.57,10.984-17.728c1.388-1.226,3.135-2.258,5.184-3.12h18.367c6.857,0,12.466-5.611,12.466-12.466V94.138
	c0-6.857-5.611-12.466-12.466-12.466H383.49c-6.857,0-12.466,5.611-12.466,12.466v15.657c0,6.857,5.611,12.466,12.466,12.466h28.915
	c0.07,0.064-78.973,207.054-78.973,207.054l-42.584-95.768c0,0,55.916-110.986,56.117-111.288h11.789
	c6.857,0,12.466-5.611,12.466-12.466V94.137c0-6.857-5.611-12.466-12.466-12.466h-84.167c-6.857,0-12.466,5.611-12.466,12.466
	v15.657c0,6.857,5.611,12.466,12.466,12.466h18.284c-0.467,1.527-25.799,57.729-25.799,57.729s-24.051-53.879-25.587-57.729h8.395
	c6.858,0,12.466-5.611,12.466-12.466V94.137c0-6.857-5.609-12.466-12.466-12.466h-86.948c-6.857,0-12.466,5.611-12.466,12.466
	v15.657c0,6.857,5.611,12.466,12.466,12.466h10.877c2.119,3.161,55.807,120.814,59.908,130.758l-34.988,76.665
	c-20.086-46.834-68.241-159.739-84.559-203.468c-0.596-1.556-1.028-2.851-1.365-3.955h24.883c6.857,0,12.466-5.611,12.466-12.466
	V94.137c0-6.857-5.611-12.466-12.466-12.466H22.666c-6.856,0-12.466,5.61-12.466,12.466v15.657c0,6.857,5.611,12.466,12.466,12.466
	h19.627L161.392,407.284z"/>
<g>
	<path style="fill:#545459;" d="M186.058,440.53c-14.696,0-26.146-9.823-34.033-29.197c-0.035-0.086-0.067-0.167-0.098-0.246
		L35.502,132.461H22.667C10.169,132.461,0,122.293,0,109.794V94.137C0,81.639,10.169,71.47,22.667,71.47h115.023
		c4.668,0,9.011,1.419,12.622,3.847c3.609-2.429,7.952-3.847,12.622-3.847h86.948c4.553,0,8.797,1.349,12.353,3.67
		c3.555-2.32,7.799-3.67,12.353-3.67h84.167c4.56,0,8.809,1.353,12.368,3.68c3.56-2.326,7.809-3.68,12.369-3.68h105.843
		C501.831,71.47,512,81.638,512,94.137v15.656c0,12.498-10.169,22.666-22.667,22.666h-16.009c-0.394,0.239-0.644,0.436-0.79,0.565
		c-3.316,2.959-5.981,7.37-8.109,13.453c-0.077,0.226-0.186,0.516-0.299,0.806c-0.006,0.017-0.039,0.097-0.045,0.113
		c-3.231,8.127-79.426,199.758-105.598,263.694c-0.183,0.439-0.338,0.788-0.503,1.136c-8.813,18.47-20.415,27.837-34.482,27.837
		c-14.498-0.001-26.147-9.778-34.626-29.06c-6.358-14.347-17.1-39.663-31.998-75.403c-12.649,28.302-26.641,59.151-35.147,76.503
		c-0.053,0.11-0.136,0.272-0.217,0.428C217.859,419.515,206.872,440.53,186.058,440.53z M170.922,403.65
		c1.679,4.125,6.727,16.482,15.136,16.482c5.693,0,11.364-5.551,17.336-16.974c10.636-21.693,30.056-64.984,44.479-97.487
		c1.637-3.69,5.293-6.062,9.322-6.062c0.042,0,0.083,0,0.124,0.001c4.078,0.049,7.734,2.522,9.297,6.289
		c19.619,47.277,33.385,79.868,40.917,96.864c1.848,4.202,7.432,16.9,15.964,16.901c8.334,0,14.161-12.213,16.075-16.226
		l0.067-0.158c26.1-63.76,102.257-255.299,105.487-263.421l0.04-0.101c3.307-9.45,7.827-16.636,13.826-21.988
		c2.216-1.958,4.903-3.599,8.021-4.911c1.252-0.526,2.597-0.798,3.954-0.798h18.367c1.229,0,2.268-1.038,2.268-2.267V94.138
		c0-1.23-1.039-2.268-2.268-2.268H383.49c-0.923,0-1.738,0.585-2.087,1.396c0.011,0.289,0.016,0.58,0.016,0.871v15.656
		c0,0.293-0.005,0.583-0.016,0.872c0.349,0.812,1.165,1.397,2.087,1.397h28.915c2.535,0,4.978,0.943,6.856,2.648
		c5.148,4.673,2.975,10.413,1.808,13.498c-0.576,1.524-1.424,3.755-2.504,6.595c-2.155,5.668-5.238,13.762-8.94,23.471
		c-7.401,19.415-17.275,45.297-27.152,71.176c-19.753,51.757-39.514,103.505-39.514,103.505c-1.474,3.857-5.127,6.446-9.255,6.557
		c-4.125,0.106-7.915-2.279-9.592-6.052l-42.584-95.768c-1.243-2.796-1.166-6.001,0.211-8.734
		c56.188-111.526,56.25-111.618,56.724-112.334c1.89-2.851,5.081-4.564,8.501-4.564h11.789c0.922,0,1.738-0.584,2.087-1.396
		c-0.011-0.289-0.016-0.578-0.016-0.87V94.137c0-0.292,0.005-0.582,0.016-0.871c-0.349-0.811-1.165-1.396-2.087-1.396h-84.167
		c-0.899,0-1.695,0.555-2.059,1.334c0.012,0.309,0.019,0.621,0.019,0.934v15.657c0,0.313-0.006,0.625-0.019,0.934
		c0.363,0.779,1.161,1.334,2.059,1.334h18.283c3.233,0,6.276,1.533,8.199,4.134c1.924,2.6,2.5,5.957,1.553,9.05
		c-0.229,0.75-0.657,2.145-26.254,58.936c-1.648,3.656-5.288,6.008-9.299,6.008c-0.006,0-0.012,0-0.018,0
		c-4.017-0.007-7.658-2.373-9.295-6.042c-2.47-5.534-24.179-54.179-25.746-58.105c-1.253-3.142-0.869-6.701,1.029-9.502
		c1.898-2.801,5.061-4.478,8.444-4.478h8.396c0.899,0,1.695-0.555,2.059-1.334c-0.012-0.309-0.019-0.621-0.019-0.934V94.137
		c0-0.313,0.006-0.625,0.019-0.934c-0.363-0.779-1.161-1.334-2.059-1.334h-86.948c-1.229,0-2.267,1.038-2.267,2.268v15.657
		c0,1.23,1.038,2.268,2.267,2.268h10.877c3.4,0,6.576,1.694,8.47,4.518c3.725,5.553,60.419,131.464,60.867,132.55
		c1.077,2.612,1.023,5.553-0.15,8.124l-34.988,76.665c-1.659,3.636-5.288,5.964-9.277,5.964c-0.04,0-0.079,0-0.118,0
		c-4.037-0.047-7.666-2.469-9.257-6.179c-20.011-46.658-68.324-159.929-84.741-203.923c-0.586-1.533-1.108-3.045-1.566-4.547
		c-0.942-3.091-0.363-6.447,1.559-9.044c1.924-2.597,4.964-4.129,8.196-4.129h24.884c1.23,0,2.268-1.038,2.268-2.268V94.137
		c0-1.23-1.038-2.268-2.268-2.268H22.667c-1.229,0-2.268,1.038-2.268,2.268v15.657c0,1.23,1.039,2.268,2.268,2.268h19.627
		c4.113,0,7.825,2.471,9.411,6.267l119.098,285.023C170.844,403.45,170.884,403.549,170.922,403.65z M127.469,132.461
		c16.33,42.084,50.501,122.715,71.56,172.004l23.532-51.561c-9.041-20.537-45.086-99.313-55.091-120.442h-4.537
		c-4.668,0-9.011-1.419-12.622-3.847c-3.611,2.429-7.953,3.847-12.622,3.847h-10.221V132.461z M302.131,233.819l30.583,68.781
		c22.129-57.958,52.831-138.394,64.916-170.14h-14.14c-4.56,0-8.811-1.354-12.37-3.681c-3.559,2.326-7.807,3.679-12.367,3.679
		h-5.525C344.684,149.373,318.411,201.506,302.131,233.819z M256.631,131.435c2.936,6.636,6.688,15.076,10.484,23.604
		c3.617-8.048,7.224-16.094,10.121-22.577h-2.649c-4.553,0-8.797-1.349-12.353-3.67
		C260.513,129.913,258.631,130.809,256.631,131.435z"/>
	<path style="fill:#545459;" d="M175.43,376.353c-4.005,0-7.805-2.374-9.43-6.307l-36.667-88.733
		c-2.151-5.206,0.325-11.17,5.531-13.321c5.205-2.151,11.17,0.325,13.321,5.531l36.667,88.733c2.151,5.206-0.325,11.17-5.531,13.321
		C178.048,376.104,176.728,376.353,175.43,376.353z"/>
	<path style="fill:#545459;" d="M125.454,255.412c-4.006,0-7.805-2.374-9.43-6.307l-1.02-2.468
		c-2.151-5.206,0.325-11.17,5.532-13.321c5.205-2.151,11.17,0.325,13.321,5.532l1.02,2.468c2.151,5.206-0.325,11.17-5.532,13.321
		C128.071,255.163,126.752,255.412,125.454,255.412z"/>
</g>
</svg>